HIERARCHY
ROOT hip
{
  OFFSET 0 0 0
  CHANNELS 6 Xposition Yposition Zposition Zrotation Yrotation Xrotation
  JOINT abdomen
  {
    OFFSET 0 20.6881 -0.73152
    CHANNELS 3 Zrotation Xrotation Yrotation
    JOINT chest
    {
      OFFSET 0 11.7043 -0.48768
      CHANNELS 3 Zrotation Xrotation Yrotation
      JOINT neck
      {
        OFFSET 0 22.1894 -2.19456
        CHANNELS 3 Zrotation Xrotation Yrotation
        JOINT head
        {
          OFFSET -0.24384 7.07133 1.2192
          CHANNELS 3 Zrotation Xrotation Yrotation
          JOINT leftEye
          {
            OFFSET 4.14528 8.04674 8.04672
            CHANNELS 3 Zrotation Xrotation Yrotation
            End Site
            {
              OFFSET 1 0 0
            }
          }
          JOINT rightEye
          {
            OFFSET -3.6576 8.04674 8.04672
            CHANNELS 3 Zrotation Xrotation Yrotation
            End Site
            {
              OFFSET 1 0 0
            }
          }
        }
      }
      JOINT rCollar
      {
        OFFSET -2.68224 19.2634 -4.8768
        CHANNELS 3 Zrotation Xrotation Yrotation
        JOINT rShldr
        {
          OFFSET -8.77824 -1.95073 1.46304
          CHANNELS 3 Zrotation Xrotation Yrotation
          JOINT rForeArm
          {
            OFFSET -28.1742 -1.7115 0.48768
            CHANNELS 3 Zrotation Xrotation Yrotation
            JOINT rHand
            {
              OFFSET -22.5879 0.773209 7.07136
              CHANNELS 3 Zrotation Xrotation Yrotation
              JOINT rThumb1
              {
                OFFSET -1.2192 -0.487915 3.41376
                CHANNELS 3 Zrotation Xrotation Yrotation
                JOINT rThumb2
                {
                  OFFSET -3.37035 -0.52449 3.41376
                  CHANNELS 3 Zrotation Xrotation Yrotation
                  End Site
                  {
                    OFFSET -1.78271 -1.18214 1.43049
                  }
                }
              }
              JOINT rIndex1
              {
                OFFSET -7.75947 0.938293 5.60832
                CHANNELS 3 Zrotation Xrotation Yrotation
                JOINT rIndex2
                {
                  OFFSET -2.54057 -0.884171 1.56538
                  CHANNELS 3 Zrotation Xrotation Yrotation
                  End Site
                  {
                    OFFSET -1.62519 -0.234802 1.16502
                  }
                }
              }
              JOINT rMid1
              {
                OFFSET -8.24714 1.18213 3.41376
                CHANNELS 3 Zrotation Xrotation Yrotation
                JOINT rMid2
                {
                  OFFSET -3.10165 -0.590103 1.0647
                  CHANNELS 3 Zrotation Xrotation Yrotation
                  End Site
                  {
                    OFFSET -2.48547 -0.328903 0.83742
                  }
                }
              }
              JOINT rRing1
              {
                OFFSET -8.82822 0.546677 1.51678
                CHANNELS 3 Zrotation Xrotation Yrotation
                JOINT rRing2
                {
                  OFFSET -2.60934 -0.819778 -0.0198488
                  CHANNELS 3 Zrotation Xrotation Yrotation
                  End Site
                  {
                    OFFSET -2.33842 -0.294052 0.168128
                  }
                }
              }
              JOINT rPinky1
              {
                OFFSET -8.27202 -0.0477905 -0.4584
                CHANNELS 3 Zrotation Xrotation Yrotation
                JOINT rPinky2
                {
                  OFFSET -1.82734 -0.647385 -0.700984
                  CHANNELS 3 Zrotation Xrotation Yrotation
                  End Site
                  {
                    OFFSET -1.69225 -0.51767 -0.607171
                  }
                }
              }
            }
          }
        }
      }
      JOINT lCollar
      {
        OFFSET 2.68224 19.2634 -4.8768
        CHANNELS 3 Zrotation Xrotation Yrotation
        JOINT lShldr
        {
          OFFSET 8.77824 -1.95073 1.46304
          CHANNELS 3 Zrotation Xrotation Yrotation
          JOINT lForeArm
          {
            OFFSET 28.1742 -1.7115 0.48768
            CHANNELS 3 Zrotation Xrotation Yrotation
            JOINT lHand
            {
              OFFSET 22.5879 0.773209 7.07136
              CHANNELS 3 Zrotation Xrotation Yrotation
              JOINT lThumb1
              {
                OFFSET 1.2192 -0.487915 3.41376
                CHANNELS 3 Zrotation Xrotation Yrotation
                JOINT lThumb2
                {
                  OFFSET 3.37035 -0.52449 3.41376
                  CHANNELS 3 Zrotation Xrotation Yrotation
                  End Site
                  {
                    OFFSET 1.78271 -1.18214 1.43049
                  }
                }
              }
              JOINT lIndex1
              {
                OFFSET 7.75947 0.938293 5.60832
                CHANNELS 3 Zrotation Xrotation Yrotation
                JOINT lIndex2
                {
                  OFFSET 2.54057 -0.884171 1.56538
                  CHANNELS 3 Zrotation Xrotation Yrotation
                  End Site
                  {
                    OFFSET 1.62519 -0.234802 1.16502
                  }
                }
              }
              JOINT lMid1
              {
                OFFSET 8.24714 1.18213 3.41376
                CHANNELS 3 Zrotation Xrotation Yrotation
                JOINT lMid2
                {
                  OFFSET 3.10165 -0.590103 1.0647
                  CHANNELS 3 Zrotation Xrotation Yrotation
                  End Site
                  {
                    OFFSET 2.48547 -0.328903 0.83742
                  }
                }
              }
              JOINT lRing1
              {
                OFFSET 8.82822 0.546677 1.51678
                CHANNELS 3 Zrotation Xrotation Yrotation
                JOINT lRing2
                {
                  OFFSET 2.60934 -0.819778 -0.0198488
                  CHANNELS 3 Zrotation Xrotation Yrotation
                  End Site
                  {
                    OFFSET 2.33842 -0.294052 0.168128
                  }
                }
              }
              JOINT lPinky1
              {
                OFFSET 8.27202 -0.0477905 -0.4584
                CHANNELS 3 Zrotation Xrotation Yrotation
                JOINT lPinky2
                {
                  OFFSET 1.82734 -0.647385 -0.700984
                  CHANNELS 3 Zrotation Xrotation Yrotation
                  End Site
                  {
                    OFFSET 1.69225 -0.51767 -0.607171
                  }
                }
              }
            }
          }
        }
      }
    }
  }
  JOINT rButtock
  {
    OFFSET -8.77824 4.35084 1.2192
    CHANNELS 3 Zrotation Xrotation Yrotation
    JOINT rThigh
    {
      OFFSET 0 -1.70687 -2.19456
      CHANNELS 3 Zrotation Xrotation Yrotation
      JOINT rShin
      {
        OFFSET 0 -36.8199 0.73152
        CHANNELS 3 Zrotation Xrotation Yrotation
        JOINT rFoot
        {
          OFFSET 0.73152 -45.1104 -5.12064
          CHANNELS 3 Zrotation Xrotation Yrotation
          End Site
          {
            OFFSET -1.1221 -3.69964 12.103
          }
        }
      }
    }
  }
  JOINT lButtock
  {
    OFFSET 8.77824 4.35084 1.2192
    CHANNELS 3 Zrotation Xrotation Yrotation
    JOINT lThigh
    {
      OFFSET 0 -1.70687 -2.19456
      CHANNELS 3 Zrotation Xrotation Yrotation
      JOINT lShin
      {
        OFFSET 0 -36.8199 0.73152
        CHANNELS 3 Zrotation Xrotation Yrotation
        JOINT lFoot
        {
          OFFSET -0.73152 -45.1104 -5.12064
          CHANNELS 3 Zrotation Xrotation Yrotation
          End Site
          {
            OFFSET 1.1221 -3.69964 12.103
          }
        }
      }
    }
  }
}
MOTION
Frames:	4
Frame Time:	0.03333
139.73462781868875 52.982062101364136 86.2801234005019 -16.185907379982126 -28.622442179240988 11.14617375371276 12.710238408547845 11.4132478106386 2.2613106424340836 2.4593592344945967 -7.0585932571789165 0.713673446326527 0.35931971036997473 13.736212222832862 8.536760599238272 3.6769597689164333 -26.597822137540174 16.757138298385094 0.03305856915011129 -0.07902758321372183 0.0790742072589351 0.0615911241188842 -0.020504601414348515 -0.05875686241759336 0.055393274395839756 -0.13892145868471076 0.19697442475160934 103.26298677821399 44.95694715480591 -56.253308230630786 -26.969124881200408 -43.70348449870351 91.154010776076 -4.966327448825121 -50.39187552645221 -9.820432328265994 -0.14325745486890526 -0.06380789403052357 0.26572045217055956 -0.09755137640791375 -0.0742666211971056 -0.05253802853914964 -0.1878224114908286 0.23352128623667986 0.06625822439526564 7.6357331429875925 5.241359529907671 0.183076764038992 0.027022469512391855 -0.07031362253453427 0.07499350273518304 2.905184037754723 0.9153920911271581 0.16573992965650136 -0.07206281797271867 0.06989578037597345 -0.12618262227410806 10.582983675510189 0.5929465443736724 0.07554648125368962 -0.0996877848750997 -0.03677960818516663 -0.07542659275745739 2.1619341647747485 -0.6061074651306407 -0.10188467786903728 -0.14968090093775846 0.047669811208223056 -0.07266136665959393 -47.028287397976904 16.852993173197053 -36.894492820779895 13.448042272881791 -6.274535778672465 -23.89540998110044 2.384204742066242 38.76904506867906 -7.076978418877298 0.08827645976271245 0.2268211374651618 0.0307645060430597 -0.05795084673467897 -0.05349158698030689 0.007040217486990643 0.13570844164960155 0.052607050802363796 0.1122148320605791 -7.823317458352823 5.421810993345292 -0.3022840022623717 0.133618723928695 0.014056262507621788 -0.06695607762937054 -2.8516671577301462 0.8999918288177776 -0.1886914196605805 -0.1675876559095485 -0.06313047800307582 -0.14588006074720503 -10.237744933722725 0.6767434672579143 0.033080847306193165 -0.015597403980385251 -0.030979336836797756 -0.19368751627545971 -2.091113427374767 -0.5127447555920902 0.026063308181681077 -0.03658019867791399 -0.17357517049071092 0.03551500933250935 -11.638080562642495 8.341521349360752 -4.253351749010993 0.13896964353487107 38.74488327449014 2.5459967690216234 -8.247171677487135 -17.406537316744274 -31.567628287086947 0.044875249981482915 0.02014361524454276 0.049245770637497716 80.75005489644832 -54.38305900190873 67.43192367535381 2.238917226909962 73.59277479727282 -1.9969816812243555 -0.8507633470966165 4.328371985533474 -7.013166522782807
140.0658059399575 53.05619835853577 86.37539106421173 -15.994161771865064 -28.71672440299655 10.97255205255833 12.43482042177719 11.611007400319856 2.3157617642710715 2.491000939598327 -7.068868423011554 0.7180958337315516 0.34985925803927237 13.764388460706456 8.536459217141147 3.6599602818459176 -26.724231863604185 16.775149507226416 0.03426177634151779 -0.07486714423553781 0.0802697038070989 0.059581874564136855 -0.01558729209876246 -0.051202006184898126 0.05047644532792972 -0.143379651222025 0.2007158743128954 102.85003354099501 44.84326207116563 -55.82836459632386 -26.992480713067266 -43.48120282235461 90.79160093871513 -4.957007655702639 -50.22388019362658 -9.804862912052949 -0.14751826561137674 -0.0618200955386383 0.2539936576958824 -0.09276469446020419 -0.07102526954911142 -0.05022643639192345 -0.191215521404444 0.23718984487291717 0.0712042952105598 7.6291394491175915 5.2444352494682915 0.18071816098036908 0.01724366633334344 -0.06558899925873662 0.07053402953739941 2.909465712590675 0.9124352595467773 0.16431732931843465 -0.07929638851015886 0.07174372007243214 -0.1288662462876884 10.58307929815857 0.5862261718389088 0.08047246170787042 -0.1015557348913924 -0.03869707707294193 -0.0729971264861956 2.1591551315561994 -0.6083926970165389 -0.10533258937857144 -0.1492563886725863 0.04784483480570463 -0.07156896327921501 -46.968670091806445 16.93018967874383 -36.85520898776856 13.50232263998953 -6.297999612905575 -23.96303226897815 2.3509449224594534 38.54688975082981 -7.006788833645309 0.08907601878242707 0.22007429794736436 0.03250471017753201 -0.05191199901303566 -0.050781362581560546 0.0062469550479171305 0.14160252137735233 0.05107017819783159 0.11371427202680846 -7.822105953548792 5.4175540779450815 -0.30535812099740633 0.128964590339566 0.013765872746190464 -0.06978414947172606 -2.8467355477059852 0.8892095214392662 -0.1885015083851424 -0.16369556866055193 -0.05750378950916048 -0.14743867789929022 -10.233313848498678 0.6824739426107022 0.04150535203887498 -0.013102890829449657 -0.031707712478756145 -0.19059333385973815 -2.0931533060590737 -0.5162296995335305 0.025231946093643588 -0.03899371005416147 -0.17073018325798905 0.040548191740147614 -11.867337569681265 7.898009845795143 -4.170686823259975 0.10026861775881524 39.39849822711451 2.556208542161027 -8.255804182824384 -17.503917031288438 -31.428903729949404 0.04890794307784654 0.028820009883295247 0.05254464528490809 80.19797753602536 -54.54802514583746 66.92325216710628 2.1150594302745973 73.42428769082696 -1.8895167654838443 -0.8215181846179145 4.495318884321511 -6.633454962480642
140.36756888963282 53.13470959663391 86.42990833614022 -15.77254945405483 -28.817660938550997 10.776974708316892 12.122392201215174 11.833113199297623 2.373101202353329 2.523371340509133 -7.079217867151416 0.7196326796556574 0.34070680455145524 13.793387736375038 8.534485292471013 3.6411192050204373 -26.86325694906521 16.788789394998933 0.0354218146029357 -0.07072100596592851 0.08161407713482781 0.0576324958863329 -0.00968152634422862 -0.04186823251895836 0.04580091403679154 -0.14764313000714102 0.2053097901795372 102.37459773324876 44.723696194649975 -55.345630731449454 -27.016152441183237 -43.23093786097618 90.38215841872955 -4.956132110828407 -50.03912357657773 -9.798155666287997 -0.15227063653067754 -0.059543401389202645 0.2409399922532244 -0.08760107144767455 -0.0679268182651586 -0.04779878438965994 -0.19441909356859155 0.24136960047984762 0.07657058274236841 7.621262533457274 5.2473794878873905 0.17848404879154023 0.0063400163753585545 -0.06054132937953853 0.06486198431852695 2.9143894252086078 0.9095298678285831 0.16285550875349325 -0.08720788200314925 0.0732581010774709 -0.13197995877556795 10.58182425089858 0.5791876618992107 0.08663684083593916 -0.10396753872034738 -0.04098326945419214 -0.07036270117898051 2.1555095180867054 -0.6108519920045666 -0.10887777772292541 -0.1481486440470013 0.04797957095925371 -0.06981200383693502 -46.88365472720729 17.017180675560404 -36.81783419263025 13.568473022101102 -6.328121600918977 -24.04776759582133 2.3015118552283096 38.271561410292016 -6.918611091460444 0.08977664678088229 0.21199546481970866 0.033754314630527 -0.04543516541086529 -0.04816580033584234 0.0058196413379682085 0.14785806752258485 0.04935118500238334 0.11540719844561959 -7.819735024133151 5.41150936052962 -0.3093618658310767 0.1237126017546493 0.013531084993471276 -0.07331130184780296 -2.8412613645296316 0.8774729085676571 -0.1883398250008835 -0.158995011129408 -0.05102919706281151 -0.1490432387457143 -10.22755770657565 0.6884491841956997 0.050787899286039655 -0.009200771740109637 -0.03221640148936342 -0.18701292735247632 -2.095379520841675 -0.5203106842017603 0.024777204905308832 -0.04214733646000329 -0.16816886231923425 0.046497926837463406 -12.126835239270267 7.3829367427480195 -4.073094519077894 0.05573514404009741 40.152120809566206 2.5633403268715784 -8.26557647597938 -17.61787703004281 -31.256496094919942 0.05342851445219005 0.03769768165915155 0.056863139109354435 79.57536481204367 -54.72890904562691 66.35368952240809 1.9663179738324064 73.22576141241136 -1.762898185041619 -0.7942939043598899 4.687137916972149 -6.235635290028304
140.63695347867906 53.21746468544006 86.43575347959995 -15.514993265737404 -28.92583064443649 10.556164937734135 11.766863779443085 12.083738453154778 2.433443575792864 2.55668558818587 -7.089352160332422 0.7176462685459473 0.33211143836781737 13.824039917822763 8.530888344099354 3.6206363214732153 -27.019108205546562 16.79783256546003 0.03643342965203805 -0.06659541162468213 0.08325289564880775 0.05578194150808258 -0.0026436567347651696 -0.030451624682134935 0.041456353435708075 -0.15149679744205627 0.2108600926125395 101.82412546728077 44.59788411013834 -54.793317729500124 -27.04056695237145 -42.9480655765001 89.9171318192784 -4.965427571401972 -49.834986297758974 -9.802014723169053 -0.1575342044206715 -0.05702194100755723 0.2264927547764723 -0.08203852269893386 -0.06501769128726208 -0.0451681477030001 -0.19738179484279036 0.24612415919411698 0.08235489919572296 7.612028971473063 5.250043688550519 0.17639433107063368 -0.00585293851017202 -0.055122374685926775 0.05775570609565759 2.919964994005454 0.9067325851983455 0.16139566254010881 -0.09584382911541056 0.07437398323312173 -0.1355229059641005 10.57891800540674 0.5718169272894148 0.09435844973391791 -0.10712329956030482 -0.0437350886377668 -0.06750650816715159 2.150859439922396 -0.6135068011575859 -0.11260994249580847 -0.14628253498013333 0.04804493800404485 -0.0672911304246714 -46.76849773780088 17.115084607123368 -36.78348517129426 13.648811414666085 -6.366113247516704 -24.153213763775277 2.231515009396961 37.933337272782154 -6.808198522206249 0.09032092748036769 0.20236735268922365 0.03438290547757974 -0.03856122034148214 -0.04576210735652676 0.005815799356560076 0.15444236988247714 0.04745076490710663 0.11729745329842062 -7.8160185474510175 5.403346430697809 -0.31437599841423297 0.11771388139437983 0.013339679614152247 -0.0776010341725412 -2.8351135539463854 0.8646899960925668 -0.18829030612940093 -0.15340354079840052 -0.04350606385715981 -0.15076076451770806 -10.220266479636662 0.6946636424842064 0.0609680828005321 -0.0035623972194112207 -0.0323920120562268 -0.18278397303918062 -2.097805945544322 -0.525028904175211 0.02470708874461042 -0.046105751249143026 -0.16606281617734314 0.05354310688377289 -12.42255681712243 6.781483944815037 -3.9579733881646213 0.0042704156959918 41.02668896674591 2.5668072882055943 -8.276116311642355 -17.752061218929587 -31.041853985157704 0.058510015112120874 0.04671849392288722 0.06238641427036756 78.87154113883054 -54.92847351279634 65.71379641982628 1.7865286118574533 72.99357596176596 -1.6116948722904618 -0.7702059615913706 4.908019404541191 -5.819170908689124
